HIERARCHY
ROOT Hips
{
  OFFSET 0 0 0
  CHANNELS 6 Xposition Yposition Zposition Zrotation Yrotation Xrotation
  JOINT LeftThigh
  {
    OFFSET 8.409438 0 -5.917753
    CHANNELS 3 Zrotation Yrotation Xrotation
    JOINT LeftLeg
    {
      OFFSET 0 0 -42.358652
      CHANNELS 3 Zrotation Yrotation Xrotation
      JOINT LeftFoot
      {
        OFFSET 0 0 -39.357303
        CHANNELS 3 Zrotation Yrotation Xrotation
      }
    }
  }
  JOINT RightThigh
  {
    OFFSET -8.409438 0 -5.917753
    CHANNELS 3 Zrotation Yrotation Xrotation
    JOINT RightLeg
    {
      OFFSET 0 0 -42.358652
      CHANNELS 3 Zrotation Yrotation Xrotation
      JOINT RightFoot
      {
        OFFSET 0 0 -39.357303
        CHANNELS 3 Zrotation Yrotation Xrotation
      }
    }
  }
  JOINT SpineLow
  {
    OFFSET 0 0 4.719101
    CHANNELS 3 Zrotation Yrotation Xrotation
    JOINT SpineMid
    {
      OFFSET 0 0 12.899191
      CHANNELS 3 Zrotation Yrotation Xrotation
      JOINT Chest
      {
        OFFSET 0 0 12.899191
        CHANNELS 3 Zrotation Yrotation Xrotation
        JOINT LeftShoulder
        {
          OFFSET 7.550562 1.41573 9.438202
          CHANNELS 3 Zrotation Yrotation Xrotation
          JOINT LeftArm
          {
            OFFSET 9.155056 0 4.247191
            CHANNELS 3 Zrotation Yrotation Xrotation
            JOINT LeftForearm
            {
              OFFSET 0 0 25.771955
              CHANNELS 3 Zrotation Yrotation Xrotation
              JOINT LeftHand
              {
                OFFSET 0 0 25.197169
                CHANNELS 3 Zrotation Yrotation Xrotation
              }
            }
          }
        }
        JOINT RightShoulder
        {
          OFFSET -7.550562 1.41573 9.438202
          CHANNELS 3 Zrotation Yrotation Xrotation
          JOINT RightArm
          {
            OFFSET -9.155056 0 4.247191
            CHANNELS 3 Zrotation Yrotation Xrotation
            JOINT RightForearm
            {
              OFFSET 0 0 -25.771955
              CHANNELS 3 Zrotation Yrotation Xrotation
              JOINT RightHand
              {
                OFFSET 0 0 -25.197169
                CHANNELS 3 Zrotation Yrotation Xrotation
              }
            }
          }
        }
        JOINT Neck
        {
          OFFSET 0 0 15.101124
          CHANNELS 3 Zrotation Yrotation Xrotation
          JOINT Head
          {
            OFFSET 0 0 11.325843
            CHANNELS 3 Zrotation Yrotation Xrotation
            End Site
            {
              OFFSET 0 0 14.157303
            }
          }
        }
      }
    }
  }
}
MOTION
Frames: 5
Frame Time: 0.0
0.0  93.25843  0.0  -4.143544  9.056799  -93.873649  0.822735  -20.719521  -5.452735  -7.351448  3.033954  17.287425  8.400153  1.434435  3.792512  -16.294823  0.648151  -4.45197  -7.743665  9.744378  14.72637  4.791133  1.873332  0.467556  0.316049  -0.108764  -0.361205  0.865496  -0.292562  -0.988727  0.865496  -0.292562  -0.988728  -23.868105  19.299566  17.160387  -163.596624  24.837354  -104.712987  -21.060888  23.129918  83.979919  56.992689  -2.309708  19.30044  3.19427  -19.815171  27.971755  109.079516  62.286248  48.005687  -14.859369  -29.34555  -111.973724  51.853851  -4.517747  -4.09778  -9.70479  -2.467705  6.621045  -7.251739  -1.956771  4.927285  
0.0  93.25843  0.0  -4.028186  9.3784  -94.073893  2.016918  -20.354035  -5.44598  -8.472348  3.234558  17.78239  8.526107  1.406262  3.837589  -16.12707  0.813043  -4.578608  -8.22841  10.060493  15.319861  4.996422  1.942059  0.563163  0.255726  -0.086118  -0.343918  0.700212  -0.23175  -0.940969  0.700212  -0.23175  -0.940969  -23.972395  19.450561  17.204327  -163.437319  24.93496  -104.676081  -20.363105  22.218005  84.949805  57.720911  -2.252509  18.548305  3.149068  -19.878848  27.907129  109.515558  61.481473  47.80506  -15.113539  -28.951172  -111.985076  51.997845  -4.561565  -4.022286  -9.717456  -2.474842  6.773333  -7.260584  -1.9647  5.041353  
0.0  93.25843  0.0  -4.115845  9.265768  -94.297897  3.416018  -20.156888  -5.768698  -9.564184  3.347153  18.456188  8.560121  1.411573  3.85397  -15.709667  0.73925  -4.741938  -8.592093  10.48438  16.045941  4.987135  2.052295  0.580591  0.24148  -0.119582  -0.322552  0.661648  -0.323635  -0.882853  0.661648  -0.323635  -0.882853  -23.939553  19.682437  17.155883  -163.239261  24.994554  -104.639897  -19.408072  21.258317  86.152853  58.25402  -2.113094  17.46901  2.852802  -19.781024  27.709095  109.684859  61.166211  47.906641  -14.361129  -28.84988  -112.766241  52.046012  -4.69378  -4.054376  -9.752531  -2.4072  6.853234  -7.287413  -1.915623  5.10228  
0.0  93.25843  0.0  -4.140162  8.768899  -94.446208  5.316242  -19.853932  -5.985755  -10.718599  3.310084  18.996339  8.456802  1.42445  3.819647  -15.067944  0.682011  -5.060302  -9.416761  11.012383  16.671152  5.327844  2.200991  0.660595  0.229645  -0.141592  -0.315202  0.62955  -0.384022  -0.862917  0.62955  -0.384022  -0.862917  -23.897699  19.743413  17.040935  -162.737162  24.858791  -104.609057  -18.208615  20.218776  87.496807  58.582345  -1.967607  16.050669  3.514294  -20.02082  27.894783  110.47928  60.576423  48.271153  -14.966666  -28.305885  -112.640306  52.107351  -4.86573  -4.045588  -9.558265  -2.355459  6.961752  -7.141954  -1.876306  5.18523  
0.0  93.25843  0.0  -4.16859  7.657161  -94.523489  7.342909  -19.469153  -5.987367  -11.813064  3.034844  19.275823  8.28646  1.507885  3.779206  -14.098866  0.473748  -5.568981  -9.522573  11.627165  17.608439  5.381777  2.36377  0.677642  0.307324  -0.197396  -0.315729  0.842616  -0.53553  -0.865523  0.842616  -0.53553  -0.865523  -23.56383  19.904474  16.970116  -162.410331  24.770676  -104.485142  -16.719108  19.286669  88.943924  59.077053  -1.863223  14.489148  3.356815  -19.876855  27.80841  111.09688  60.277318  48.710786  -14.285336  -28.250913  -113.519635  52.106603  -5.135492  -3.982755  -9.384895  -2.207886  7.026238  -7.013515  -1.764581  5.236575  
